<svg xmlns="http://www.w3.org/2000/svg" viewBox="0 0 760 180" width="100%" height="100%" fill="none">
  <defs>
    <linearGradient id="upDarkJewelGrad" x1="0%" y1="0%" x2="100%" y2="100%">
      <stop offset="0%" stop-color="#8B5CF6" />
      <stop offset="50%" stop-color="#EC4899" />
      <stop offset="100%" stop-color="#F97316" />
    </linearGradient>
  </defs>
  <!-- 1. CIRCULAR GLYPH BADGE (JEWEL ON OBSIDIAN) -->
  <g transform="translate(10, 6)">
    <circle cx="84" cy="84" r="84" fill="url(#upDarkJewelGrad)" />
    <g transform="translate(14, 14) scale(1.4)" stroke="#FFFFFF" fill="none">
      <path d="M 28 40 V 60 C 28 68 34 74 42 74 C 50 74 54 68 54 60 V 40" stroke-width="8.5" stroke-linecap="round" stroke-linejoin="round" />
      <path d="M 54 40 H 68 C 76 40 82 46 82 53 C 82 60 76 66 68 66 H 54 V 74" stroke-width="8.5" stroke-linecap="round" stroke-linejoin="round" />
      <path d="M 54 18 L 41 31 H 67 Z" fill="#FFFFFF" stroke="none" />
    </g>
  </g>

  <!-- 2. OFFICIAL BESPOKE WORDMARK "UP ↑" (WHITE ON DARK) -->
  <g fill="#FFFFFF">
    <path d="M 230 42 H 256 V 98 C 256 112 268 120 285 120 C 302 120 314 112 314 98 V 42 H 340 V 98 C 340 126 317 142 285 142 C 253 142 230 126 230 98 Z" />
    <path d="M 370 42 H 430 C 455 42 472 56 472 77 C 472 98 455 112 430 112 H 396 V 142 H 370 Z M 396 64 V 90 H 428 C 441 90 446 84 446 77 C 446 70 441 64 428 64 Z" />
    <path d="M 510 58 L 526 42 L 542 58 L 533 58 L 533 118 L 519 118 L 519 58 Z" fill="url(#upDarkJewelGrad)" />
  </g>
  <text x="232" y="164" font-family="'JetBrains Mono', monospace" font-size="13" font-weight="700" letter-spacing="0.22em" fill="#8A9098">ENTERPRISE VELOCITY OS // BY WISIBLE</text>
</svg>